<svg xmlns="http://www.w3.org/2000/svg" width="80.356" height="80.356" viewBox="0 0 80.356 80.356"><g transform="translate(-9.822 -9.822)"><path d="M67.592,46.938l-.774-11.283a2.661,2.661,0,0,0-2.473-2.473l-11.283-.774A2.661,2.661,0,0,0,51,33.181L10.6,73.575a2.668,2.668,0,0,0-.471,3.139A31.353,31.353,0,0,0,23.286,89.866a2.668,2.668,0,0,0,3.139-.471L66.819,49a2.661,2.661,0,0,0,.773-2.064Z" fill="#feda6f"/><path d="M89.821,14.591l-4.413-4.413a1.217,1.217,0,0,0-1.721,0l-1.054,1.054a1.215,1.215,0,0,0-.332,1.1L61.629,33.006l5.364,5.364L87.666,17.7a1.215,1.215,0,0,0,1.1-.332l1.054-1.054a1.217,1.217,0,0,0,0-1.721Z" fill="#344d5b"/><path d="M57.418,47.041l-.9-.9-32.4,32.4.9,11.584c.032-.006.063-.015.094-.022l.8-11.306Z" fill="#f4c756" opacity="0.5"/><path d="M53.855,43.478l-.9-.9L21.2,74.085l-11.306.8c-.007.032-.016.063-.022.094l11.584.9Z" fill="#f4c756" opacity="0.5"/></g></svg>