<svg xmlns="http://www.w3.org/2000/svg" width="126.038" height="127.124" viewBox="0 0 126.038 127.124"><g transform="translate(-1 -0.511)"><path d="M64,1a63,63,0,0,0,0,126q1.6,0,3.171-.078A63,63,0,0,0,64,1Z" fill="#f26176"/><g opacity="0.5"><path d="M127,64a63,63,0,0,1-59.83,62.92c-1.05.05-2.11.08-3.17.08A63.028,63.028,0,0,1,6.079,88.828,62.779,62.779,0,0,0,48.21,104.98c1.06,0,2.12-.03,3.17-.08a63.039,63.039,0,0,0,54.75-87.75A62.894,62.894,0,0,1,127,64Z" fill="#e95a6a"/></g><path d="M82.893,7.3a1,1,0,0,1-.33-1.944q1.641-.574,3.283-1.088a1,1,0,1,1,.6,1.908q-1.611.5-3.221,1.068a1,1,0,0,1-.332.056Z" fill="#d9e2e9"/><path d="M79.288,12.735a1,1,0,0,1-.384-1.924c1.774-.736,3.585-1.429,5.38-2.059a1,1,0,1,1,.662,1.887c-1.76.618-3.535,1.3-5.274,2.02a1.008,1.008,0,0,1-.384.076Z" fill="#d9e2e9"/><path d="M76.053,18.331a1,1,0,0,1-.437-1.9c1.723-.833,3.48-1.624,5.225-2.35a1,1,0,1,1,.768,1.847c-1.709.711-3.433,1.486-5.121,2.3A1,1,0,0,1,76.053,18.331Z" fill="#d9e2e9"/><path d="M73.184,24.071A1,1,0,0,1,72.7,22.2c1.651-.92,3.353-1.806,5.057-2.633a1,1,0,1,1,.873,1.8c-1.67.81-3.338,1.678-4.957,2.58a.99.99,0,0,1-.489.124Z" fill="#d9e2e9"/><path d="M70.683,29.938a1,1,0,0,1-.537-1.844c1.6-1.017,3.244-2,4.878-2.907A1,1,0,0,1,76,26.934c-1.6.894-3.21,1.853-4.78,2.849a1,1,0,0,1-.537.155Z" fill="#d9e2e9"/><path d="M68.548,35.916a1,1,0,0,1-.585-1.812c1.535-1.1,3.112-2.17,4.689-3.172a1,1,0,1,1,1.072,1.687c-1.545.982-3.09,2.028-4.594,3.109A1,1,0,0,1,68.548,35.916Z" fill="#d9e2e9"/><path d="M66.782,41.984a1,1,0,0,1-.631-1.777c1.456-1.18,2.965-2.333,4.484-3.429a1,1,0,0,1,1.17,1.623c-1.49,1.073-2.968,2.2-4.395,3.359a1,1,0,0,1-.628.224Z" fill="#d9e2e9"/><path d="M65.382,48.128a1,1,0,0,1-.674-1.739c1.384-1.261,2.821-2.5,4.272-3.675a1,1,0,1,1,1.26,1.553c-1.421,1.154-2.829,2.366-4.185,3.6a1,1,0,0,1-.673.261Z" fill="#d9e2e9"/><path d="M64.351,54.33a1,1,0,0,1-.715-1.7c1.308-1.339,2.669-2.655,4.046-3.912A1,1,0,0,1,69.029,50.2c-1.348,1.231-2.682,2.521-3.964,3.833a.994.994,0,0,1-.714.3Z" fill="#d9e2e9"/><path d="M63.688,60.571a1,1,0,0,1-.755-1.656c1.225-1.41,2.506-2.8,3.808-4.137a1,1,0,1,1,1.432,1.4c-1.275,1.308-2.53,2.671-3.729,4.052a1,1,0,0,1-.756.341Z" fill="#d9e2e9"/><path d="M63.39,66.835a1,1,0,0,1-.791-1.611c1.143-1.48,2.34-2.944,3.559-4.35a1,1,0,0,1,1.512,1.31C66.475,63.562,65.3,65,64.183,66.446a1,1,0,0,1-.793.389Z" fill="#d9e2e9"/><path d="M63.462,73.1a1,1,0,0,1-.825-1.563c1.053-1.546,2.162-3.078,3.3-4.553a1,1,0,1,1,1.584,1.22c-1.111,1.444-2.2,2.944-3.229,4.459a1,1,0,0,1-.83.437Z" fill="#d9e2e9"/><path d="M63.9,79.362a1,1,0,0,1-.857-1.513c.962-1.608,1.979-3.2,3.025-4.742a1,1,0,1,1,1.654,1.124C66.7,75.738,65.7,77.3,64.76,78.875A1,1,0,0,1,63.9,79.362Z" fill="#d9e2e9"/><path d="M64.707,85.589a1,1,0,0,1-.886-1.461c.865-1.665,1.787-3.319,2.741-4.917a1,1,0,1,1,1.717,1.024c-.933,1.565-1.836,3.186-2.685,4.816a1,1,0,0,1-.887.538Z" fill="#d9e2e9"/><path d="M65.881,91.771a1,1,0,0,1-.912-1.408c.765-1.715,1.587-3.424,2.445-5.08a1,1,0,1,1,1.775.92c-.84,1.622-1.646,3.295-2.395,4.974A1,1,0,0,1,65.881,91.771Z" fill="#d9e2e9"/><path d="M67.424,97.888a1,1,0,0,1-.937-1.352c.66-1.762,1.38-3.521,2.138-5.228a1,1,0,1,1,1.828.812c-.742,1.67-1.446,3.393-2.093,5.118a1,1,0,0,1-.936.65Z" fill="#d9e2e9"/><path d="M69.333,103.923a1,1,0,0,1-.956-1.293c.553-1.8,1.164-3.606,1.817-5.361a1,1,0,0,1,1.875.7c-.641,1.718-1.239,3.484-1.78,5.249A1,1,0,0,1,69.333,103.923Z" fill="#d9e2e9"/><path d="M71.611,109.859a1,1,0,0,1-.974-1.232c.44-1.843.941-3.687,1.486-5.479a1,1,0,1,1,1.914.582c-.534,1.754-1.023,3.559-1.455,5.362a1,1,0,0,1-.971.767Z" fill="#d9e2e9"/><path d="M74.256,115.679a1.031,1.031,0,0,1-.172-.015,1,1,0,0,1-.814-1.156c.325-1.871.71-3.749,1.144-5.582a1,1,0,1,1,1.945.461c-.424,1.793-.8,3.631-1.118,5.462A1,1,0,0,1,74.256,115.679Z" fill="#d9e2e9"/><path d="M77.268,121.366a1.024,1.024,0,0,1-.108-.006,1,1,0,0,1-.887-1.1c.205-1.9.471-3.808.789-5.667a1,1,0,1,1,1.971.337c-.311,1.819-.57,3.684-.771,5.545a1,1,0,0,1-.994.891Z" fill="#d9e2e9"/><path d="M73.833,9.359a1,1,0,0,1-.41-1.913c1.823-.816,3.685-1.589,5.533-2.3a1,1,0,1,1,.715,1.867c-1.813.7-3.641,1.454-5.43,2.255a1,1,0,0,1-.408.091Z" fill="#d9e2e9"/><path d="M70.4,15.292a1,1,0,0,1-.46-1.892c1.765-.915,3.568-1.788,5.361-2.595a1,1,0,1,1,.82,1.824c-1.759.792-3.529,1.648-5.262,2.546a.992.992,0,0,1-.459.117Z" fill="#d9e2e9"/><path d="M67.359,21.378a1,1,0,0,1-.511-1.86c1.708-1.014,3.45-1.983,5.178-2.883a1,1,0,0,1,.924,1.774c-1.7.882-3.4,1.834-5.082,2.829a.988.988,0,0,1-.509.14Z" fill="#d9e2e9"/><path d="M64.707,27.6a1,1,0,0,1-.56-1.829c1.633-1.1,3.31-2.165,4.983-3.163a1,1,0,1,1,1.023,1.718c-1.642.979-3.287,2.023-4.89,3.1a.991.991,0,0,1-.556.174Z" fill="#d9e2e9"/><path d="M62.445,33.937a1,1,0,0,1-.607-1.8C63.4,30.953,65,29.8,66.614,28.708a1,1,0,1,1,1.121,1.656c-1.579,1.069-3.155,2.2-4.685,3.368a1,1,0,0,1-.6.205Z" fill="#d9e2e9"/><path d="M60.571,40.372a1,1,0,0,1-.65-1.759c1.486-1.274,3.02-2.517,4.558-3.693a1,1,0,1,1,1.215,1.589c-1.508,1.153-3.013,2.373-4.472,3.623a1,1,0,0,1-.651.24Z" fill="#d9e2e9"/><path d="M59.088,46.886a1,1,0,0,1-.693-1.72c1.4-1.347,2.854-2.674,4.328-3.943a1,1,0,1,1,1.3,1.516c-1.445,1.245-2.874,2.546-4.246,3.868a.994.994,0,0,1-.689.279Z" fill="#d9e2e9"/><path d="M58,53.46a1,1,0,0,1-.734-1.679c1.327-1.437,2.7-2.844,4.086-4.182a1,1,0,1,1,1.391,1.438c-1.357,1.312-2.705,2.691-4.008,4.1A1,1,0,0,1,58,53.46Z" fill="#d9e2e9"/><path d="M57.29,60.078a1,1,0,0,1-.771-1.635c1.233-1.5,2.523-2.985,3.832-4.408a1,1,0,1,1,1.473,1.354c-1.284,1.4-2.549,2.85-3.76,4.323a1,1,0,0,1-.774.366Z" fill="#d9e2e9"/><path d="M56.976,66.72a1,1,0,0,1-.808-1.589c1.146-1.574,2.347-3.129,3.567-4.622a1,1,0,0,1,1.549,1.266c-1.2,1.465-2.375,2.99-3.5,4.534a1,1,0,0,1-.808.411Z" fill="#d9e2e9"/><path d="M57.052,73.367a1,1,0,0,1-.841-1.54C57.265,70.184,58.372,68.561,59.5,67a1,1,0,1,1,1.619,1.174c-1.107,1.528-2.193,3.12-3.227,4.73A1,1,0,0,1,57.052,73.367Z" fill="#d9e2e9"/><path d="M57.518,80a1,1,0,0,1-.871-1.489c.949-1.693,1.959-3.379,3-5.013a1,1,0,1,1,1.686,1.076c-1.022,1.6-2.013,3.255-2.943,4.915A1,1,0,0,1,57.518,80Z" fill="#d9e2e9"/><path d="M58.372,86.6a1,1,0,0,1-.9-1.437c.854-1.757,1.763-3.5,2.7-5.187a1,1,0,1,1,1.746.975C61,82.6,60.106,84.313,59.269,86.037a1,1,0,0,1-.9.563Z" fill="#d9e2e9"/><path d="M59.618,93.158a1,1,0,0,1-.924-1.382c.742-1.8,1.547-3.6,2.389-5.347a1,1,0,0,1,1.8.868c-.826,1.715-1.615,3.479-2.344,5.242a1,1,0,0,1-.921.619Z" fill="#d9e2e9"/><path d="M61.253,99.644a1,1,0,0,1-.945-1.326c.638-1.856,1.333-3.7,2.065-5.492a1,1,0,1,1,1.852.759c-.719,1.752-1.4,3.564-2.026,5.384a1,1,0,0,1-.946.675Z" fill="#d9e2e9"/><path d="M63.278,106.042a1.015,1.015,0,0,1-.268-.037,1,1,0,0,1-.7-1.23c.522-1.892,1.1-3.783,1.731-5.622a1,1,0,1,1,1.893.645c-.613,1.8-1.185,3.656-1.7,5.509a1,1,0,0,1-.956.735Z" fill="#d9e2e9"/><path d="M65.692,112.336a1,1,0,0,1-.979-1.206c.4-1.919.869-3.849,1.384-5.735a1,1,0,0,1,1.93.526c-.5,1.849-.961,3.74-1.356,5.62a1,1,0,0,1-.979.795Z" fill="#d9e2e9"/><path d="M68.5,118.507a1.039,1.039,0,0,1-.145-.01,1,1,0,0,1-.846-1.133c.284-1.959.629-3.922,1.024-5.833a1,1,0,0,1,1.959.4c-.388,1.872-.726,3.794-1,5.714a1,1,0,0,1-.992.857Z" fill="#d9e2e9"/><path d="M71.689,124.536h-.081a1,1,0,0,1-.917-1.077c.159-1.977.379-3.966.654-5.912a1,1,0,1,1,1.98.28c-.27,1.906-.485,3.854-.641,5.792A1,1,0,0,1,71.689,124.536Z" fill="#d9e2e9"/><path d="M56.049,7.575a1,1,0,0,1-1-.956c-.074-1.679-.112-3.4-.112-5.108a1,1,0,0,1,2,0c0,1.682.037,3.37.11,5.02a1,1,0,0,1-.955,1.043Z" fill="#d9e2e9"/><path d="M52.567,14.541a1,1,0,0,1-.993-.893c-.235-2.172-.411-4.4-.525-6.623a1,1,0,1,1,2-.1c.111,2.184.285,4.375.516,6.509a1,1,0,0,1-.887,1.1,1.022,1.022,0,0,1-.111.007Z" fill="#d9e2e9"/><path d="M49.532,21.66a1,1,0,0,1-.984-.831c-.371-2.161-.687-4.365-.936-6.548a1,1,0,1,1,1.986-.228c.246,2.147.556,4.313.92,6.437a1,1,0,0,1-.816,1.155.959.959,0,0,1-.17.015Z" fill="#d9e2e9"/><path d="M46.943,28.911a1,1,0,0,1-.973-.77c-.5-2.116-.949-4.288-1.336-6.454a1,1,0,1,1,1.969-.352c.38,2.131.822,4.266,1.314,6.346a1,1,0,0,1-.743,1.2,1.024,1.024,0,0,1-.231.03Z" fill="#d9e2e9"/><path d="M44.8,36.275a1,1,0,0,1-.957-.711c-.626-2.074-1.206-4.208-1.724-6.342a1,1,0,0,1,1.943-.472c.51,2.1,1.079,4.2,1.694,6.236a1,1,0,0,1-.957,1.29Z" fill="#d9e2e9"/><path d="M43.1,43.73a1,1,0,0,1-.938-.655c-.751-2.039-1.458-4.129-2.1-6.212a1,1,0,0,1,1.912-.589c.631,2.048,1.325,4.1,2.064,6.109A1,1,0,0,1,43.1,43.73Z" fill="#d9e2e9"/><path d="M41.854,51.254a1,1,0,0,1-.917-.6c-.873-1.992-1.7-4.033-2.465-6.065a1,1,0,1,1,1.873-.7c.749,2,1.564,4,2.424,5.964a1,1,0,0,1-.915,1.4Z" fill="#d9e2e9"/><path d="M41.049,58.826a1,1,0,0,1-.892-.545c-.983-1.923-1.932-3.909-2.817-5.9a1,1,0,1,1,1.826-.813c.872,1.959,1.8,3.911,2.772,5.8a1,1,0,0,1-.89,1.455Z" fill="#d9e2e9"/><path d="M40.689,66.426a1,1,0,0,1-.863-.493c-1.1-1.863-2.159-3.788-3.159-5.719a1,1,0,1,1,1.775-.92c.984,1.9,2.03,3.792,3.108,5.625a1,1,0,0,1-.861,1.507Z" fill="#d9e2e9"/><path d="M40.775,74.033a1,1,0,0,1-.832-.444c-1.2-1.8-2.376-3.654-3.488-5.523a1,1,0,1,1,1.719-1.022c1.094,1.838,2.249,3.667,3.432,5.433a1,1,0,0,1-.83,1.556Z" fill="#d9e2e9"/><path d="M41.309,81.625a1,1,0,0,1-.8-.4c-1.3-1.712-2.579-3.5-3.807-5.312A1,1,0,0,1,38.36,74.8c1.207,1.782,2.467,3.54,3.744,5.224a1,1,0,0,1-.8,1.6Z" fill="#d9e2e9"/><path d="M42.286,89.181a1,1,0,0,1-.761-.351c-1.4-1.641-2.785-3.352-4.112-5.084A1,1,0,1,1,39,82.53c1.306,1.7,2.667,3.387,4.046,5a1,1,0,0,1-.761,1.649Z" fill="#d9e2e9"/><path d="M43.711,96.681a1,1,0,0,1-.722-.308C41.483,94.8,40,93.174,38.582,91.53A1,1,0,0,1,40.1,90.223c1.4,1.618,2.854,3.222,4.337,4.765a1,1,0,0,1-.722,1.692Z" fill="#d9e2e9"/><path d="M45.581,104.1a.994.994,0,0,1-.68-.267c-1.6-1.482-3.176-3.026-4.689-4.589a1,1,0,1,1,1.436-1.392c1.49,1.538,3.043,3.057,4.613,4.515a1,1,0,0,1-.68,1.733Z" fill="#d9e2e9"/><path d="M47.9,111.425a1,1,0,0,1-.636-.229c-1.676-1.383-3.345-2.837-4.962-4.321a1,1,0,0,1,1.354-1.474c1.59,1.46,3.232,2.891,4.882,4.252a1,1,0,0,1-.638,1.771Z" fill="#d9e2e9"/><path d="M50.659,118.628a1,1,0,0,1-.59-.193c-1.754-1.286-3.511-2.645-5.221-4.041a1,1,0,0,1,1.266-1.549c1.683,1.374,3.411,2.711,5.137,3.977a1,1,0,0,1-.592,1.807Z" fill="#d9e2e9"/><path d="M53.868,125.689a.992.992,0,0,1-.542-.161c-1.845-1.194-3.685-2.455-5.469-3.749a1,1,0,1,1,1.174-1.619c1.756,1.273,3.566,2.515,5.381,3.689a1,1,0,0,1-.544,1.839Z" fill="#d9e2e9"/><path d="M61.7,10.614a1,1,0,0,1-1-.934c-.142-2.135-.223-4.3-.24-6.434a1,1,0,0,1,.992-1.008h.008a1,1,0,0,1,1,.992c.017,2.1.1,4.221.236,6.317a1,1,0,0,1-.932,1.064c-.02,0-.042,0-.064,0Z" fill="#d9e2e9"/><path d="M58.392,17.233a1,1,0,0,1-.99-.87c-.275-2.094-.493-4.238-.648-6.374a1,1,0,0,1,.925-1.07,1.014,1.014,0,0,1,1.069.925c.152,2.1.367,4.2.637,6.258a1,1,0,0,1-.861,1.122A1.083,1.083,0,0,1,58.392,17.233Z" fill="#d9e2e9"/><path d="M55.507,24a1,1,0,0,1-.98-.809c-.4-2.069-.755-4.187-1.044-6.293a1,1,0,1,1,1.982-.271c.283,2.069.628,4.149,1.024,6.182A1,1,0,0,1,55.507,24Z" fill="#d9e2e9"/><path d="M53.047,30.89a1,1,0,0,1-.967-.748c-.53-2.034-1.011-4.119-1.428-6.2a1,1,0,0,1,1.961-.394c.409,2.04.882,4.087,1.4,6.084a1,1,0,0,1-.969,1.252Z" fill="#d9e2e9"/><path d="M51.011,37.889a1,1,0,0,1-.95-.689c-.652-1.993-1.258-4.038-1.8-6.08a1,1,0,1,1,1.934-.514c.533,2.006,1.128,4.015,1.768,5.972a1,1,0,0,1-.95,1.312Z" fill="#d9e2e9"/><path d="M49.4,44.973a1,1,0,0,1-.93-.633c-.771-1.952-1.5-3.953-2.16-5.946a1,1,0,1,1,1.9-.631c.65,1.958,1.364,3.924,2.121,5.842a1,1,0,0,1-.93,1.368Z" fill="#d9e2e9"/><path d="M48.21,52.123a1,1,0,0,1-.907-.578c-.883-1.893-1.727-3.843-2.51-5.8A1,1,0,1,1,46.65,45c.769,1.919,1.6,3.835,2.465,5.7a1,1,0,0,1-.9,1.422Z" fill="#d9e2e9"/><path d="M47.444,59.319a1,1,0,0,1-.881-.524c-.991-1.834-1.948-3.729-2.846-5.63a1,1,0,1,1,1.809-.854c.882,1.869,1.822,3.73,2.8,5.532a1,1,0,0,1-.879,1.476Z" fill="#d9e2e9"/><path d="M47.1,66.542a1,1,0,0,1-.851-.473c-1.1-1.769-2.164-3.6-3.173-5.448a1,1,0,1,1,1.756-.959c.991,1.814,2.04,3.615,3.116,5.353a1,1,0,0,1-.849,1.527Z" fill="#d9e2e9"/><path d="M47.186,73.771a1,1,0,0,1-.818-.424c-1.2-1.7-2.367-3.464-3.485-5.251a1,1,0,0,1,1.7-1.061c1.1,1.756,2.251,3.493,3.425,5.16a1,1,0,0,1-.816,1.576Z" fill="#d9e2e9"/><path d="M47.691,80.985a1,1,0,0,1-.784-.377c-1.291-1.624-2.564-3.32-3.786-5.04a1,1,0,1,1,1.631-1.158c1.2,1.691,2.452,3.357,3.722,4.953a1,1,0,0,1-.782,1.623Z" fill="#d9e2e9"/><path d="M48.621,88.167a1,1,0,0,1-.745-.333c-1.384-1.547-2.756-3.167-4.077-4.814a1,1,0,0,1,1.561-1.251c1.3,1.62,2.646,3.211,4.007,4.731a1,1,0,0,1-.745,1.667Z" fill="#d9e2e9"/><path d="M49.975,95.293A1,1,0,0,1,49.27,95c-1.482-1.475-2.948-3.014-4.355-4.576A1,1,0,1,1,46.4,89.087c1.385,1.535,2.825,3.048,4.281,4.5a1,1,0,0,1-.705,1.709Z" fill="#d9e2e9"/><path d="M51.752,102.347a1,1,0,0,1-.663-.251c-1.562-1.385-3.118-2.84-4.622-4.324a1,1,0,1,1,1.4-1.424c1.479,1.459,3.008,2.889,4.544,4.25a1,1,0,0,1-.663,1.749Z" fill="#d9e2e9"/><path d="M53.953,109.306a1,1,0,0,1-.618-.214c-1.652-1.3-3.293-2.668-4.877-4.06a1,1,0,1,1,1.32-1.5c1.557,1.368,3.17,2.711,4.795,3.991a1,1,0,0,1-.62,1.786Z" fill="#d9e2e9"/><path d="M56.578,116.15a.992.992,0,0,1-.571-.18c-1.724-1.2-3.446-2.476-5.12-3.784a1,1,0,1,1,1.23-1.576c1.646,1.286,3.34,2.537,5.034,3.72a1,1,0,0,1-.573,1.82Z" fill="#d9e2e9"/><path d="M59.627,122.861a1,1,0,0,1-.523-.148c-1.806-1.112-3.606-2.289-5.353-3.5a1,1,0,0,1,1.139-1.645c1.717,1.188,3.487,2.345,5.263,3.438a1,1,0,0,1-.525,1.852Z" fill="#d9e2e9"/><path d="M67.216,127.633a1,1,0,0,1-.868-.5A119.91,119.91,0,0,1,70.877,1.108a1,1,0,1,1,1.658,1.119,117.9,117.9,0,0,0-4.453,123.908,1,1,0,0,1-.866,1.5Z" fill="#da2a47"/></g></svg>