<svg xmlns="http://www.w3.org/2000/svg" width="62.4" height="62.4" viewBox="0 0 62.4 62.4"><g transform="translate(-18.8 -18.8)"><path d="M18.8,21.8V45.5a3,3,0,0,0,3,3H45.5a2.9,2.9,0,0,0,3-3V21.8a3,3,0,0,0-3-3H21.8A3.1,3.1,0,0,0,18.8,21.8Zm6,3H42.5V42.5H24.8Z"/><path d="M81.2,21.8a3.1,3.1,0,0,0-3-3H54.5a3,3,0,0,0-3,3V45.5a2.9,2.9,0,0,0,3,3H78.2a3,3,0,0,0,3-3Zm-6,20.7H57.5V24.8H75.2Z"/><path d="M81.2,78.2V54.5a3,3,0,0,0-3-3H54.5a2.9,2.9,0,0,0-3,3V78.2a3,3,0,0,0,3,3H78.2A3.1,3.1,0,0,0,81.2,78.2Zm-6-3H57.5V57.5H75.2Z"/><path d="M18.8,78.2a3.1,3.1,0,0,0,3,3H45.5a3,3,0,0,0,3-3V54.5a2.9,2.9,0,0,0-3-3H21.8a3,3,0,0,0-3,3Zm6-20.7H42.5V75.2H24.8Z"/></g></svg>