<svg xmlns="http://www.w3.org/2000/svg" width="27.474" height="48.628" viewBox="0 0 27.474 48.628"><g transform="translate(-11.292 -0.671)"><path d="M29.5,10.9a1.8,1.8,0,0,1,1,.2l.1-.1,2.6-1.4.1-.1a.1.1,0,0,0,.1-.1L33.3,6c0-.2-.1-.3-.1-.5L30.4,1.1A.942.942,0,0,0,28.9,1a.92.92,0,0,0-.1,1l1.8,3.7-1-.1a1.078,1.078,0,0,0-1.2,1.1V9.5A1.154,1.154,0,0,0,29.5,10.9Z"/><path d="M38.6,24.5l-4.2-14c-.1-.3-.4-.4-.6-.2h-.1l-2.6,1.4a.52.52,0,0,0-.2.4v.1l1.9,12.2L30,31.2l-1.7-.4-2.8,2.4a1.613,1.613,0,0,1-.9.3,1.525,1.525,0,0,1-1.2-.7l-.4-.6c-.2,2.1-.4,5.2-.6,5.2h0a47.815,47.815,0,0,1-.6-5.1l-.4.6a1.525,1.525,0,0,1-1.2.7,1.4,1.4,0,0,1-.9-.3l-2.8-2.4-1.8.4-1.5.7a3.311,3.311,0,0,0-1.9,3.2v6.7s.2,3.5.5,6.2a1.3,1.3,0,0,0,1.3,1.2h2.7l.4-8.8.6,8.8H31.9a1.3,1.3,0,0,0,1.3-1.2c.2-1.4.3-3.1.4-4.4v-3l5.1-14.4A3.673,3.673,0,0,0,38.6,24.5Z"/><path d="M17.7,24.2a5.794,5.794,0,0,1,.4,1.3c0,.4.3.6.6.4a7.093,7.093,0,0,0,.7,2.2,3.945,3.945,0,0,0,2.9,1.6h.5a3.945,3.945,0,0,0,2.9-1.6,6.254,6.254,0,0,0,.7-2.3.449.449,0,0,0,.7-.4,4.6,4.6,0,0,1,.4-1.3c1.3,0,4.2-.1,4-.9a.758.758,0,0,0-.2-.4h0a7.012,7.012,0,0,0-3.6-1.7h-.3c0-1.5-.1-3-.7-3.8-.6-.7-3.5-1-3.5-1H22s-2.9.2-3.5,1c-.6.7-.8,2.3-.7,3.8h-.3a7.416,7.416,0,0,0-3.2,1.4h0l-.1.1h-.1c-.1.1-.2.1-.2.2h0c-.1.1-.1.2-.2.3C13.3,24.2,17.5,24.2,17.7,24.2Z"/><path d="M17.8,30.6,20,32.5a.377.377,0,0,0,.6-.1l1-1.7a4.935,4.935,0,0,1-2.8-1.6Z"/><path d="M23.4,30.7l1,1.7a.377.377,0,0,0,.6.1l2.2-1.9-.8-1.4A7.608,7.608,0,0,1,23.4,30.7Z"/></g></svg>