<svg xmlns="http://www.w3.org/2000/svg" width="71.171" height="90" viewBox="0 0 71.171 90"><g transform="translate(-14.414 -5)"><g transform="translate(0 -952.362)"><path d="M50,957.362a35.566,35.566,0,0,0-12.118,69.011L50,1047.362l12.128-21.006A35.558,35.558,0,0,0,50,957.362Zm0,9.189a26.394,26.394,0,1,1-26.4,26.393A26.4,26.4,0,0,1,50,966.551Z"/><path d="M61.426,975.82a.8.8,0,0,0-.683.329l-.545.758a.731.731,0,0,0-.08.365l-6.8,9.447c-.075.1-.237.063-.367.012-.354-.138-.618-.274-.986-.4a1.233,1.233,0,0,0-.405-.041.552.552,0,0,0-.406.212l-14.191,19.717a.527.527,0,0,0-.088.36.872.872,0,0,0,.093.3,2.719,2.719,0,0,0,.416.587,10.87,10.87,0,0,0,3.316,2.386,2.686,2.686,0,0,0,.688.208.823.823,0,0,0,.316-.01.528.528,0,0,0,.313-.2l2.237-3.108a3,3,0,0,0,3.48-4.835l8.475-11.774a.55.55,0,0,0,.072-.453,1.234,1.234,0,0,0-.168-.371c-.233-.31-.446-.518-.689-.809-.088-.107-.181-.247-.106-.352l6.8-9.447a.74.74,0,0,0,.32-.192l.546-.758a.818.818,0,0,0-.194-1.13h0l-.912-.657a.818.818,0,0,0-.451-.154Zm-15.757,25.9a2.365,2.365,0,0,1,1.01.226,3.156,3.156,0,0,0-2.147,4.237,2.377,2.377,0,0,1,1.137-4.463Zm1.739.757a2.375,2.375,0,0,1-1.739,3.994c-.092,0-.182-.01-.272-.017a2.525,2.525,0,0,1,2.01-3.977Z"/></g></g></svg>