<svg xmlns="http://www.w3.org/2000/svg" width="91.781" height="80.013" viewBox="0 0 91.781 80.013"><g transform="translate(-4.109 -9.994)"><path d="M20.424,48.623,4.282,43.376C5.734,49.589,16.953,54.955,32.1,57.316l1.916-1.258C26.566,54.65,20.906,52.137,20.424,48.623Z"/><path d="M28.533,27.333l8.949,12.314a87.351,87.351,0,0,1,10.857-.76V25.427c-1.283.01-2.55.045-3.808.095v-3.3h9.245v3.3c-1.258-.05-2.524-.085-3.807-.095V38.888a87.336,87.336,0,0,1,10.856.76l8.949-12.317a104.991,104.991,0,0,0-14.367-1.737V22.227h6.707V9.994H36.195V22.228H42.9V25.6A104.553,104.553,0,0,0,28.533,27.333Z"/><path d="M49.154,57.386a86.693,86.693,0,0,1-12.772-.925l-1.835,1.2a112.947,112.947,0,0,0,14.608.938,113.148,113.148,0,0,0,14.608-.938l-1.836-1.2A86.834,86.834,0,0,1,49.154,57.386Z"/><path d="M64.29,56.059l1.917,1.258c15.149-2.361,26.369-7.727,27.821-13.94L77.885,48.624C77.4,52.137,71.742,54.65,64.29,56.059Z"/><path d="M62.646,39.92c7.739,1.258,13.914,3.638,15.074,7.04l16.452-5.346c-.246-3.631-3.844-7.014-9.669-9.742V21.249L95.89,11.624H82.872V31.153a65.748,65.748,0,0,0-11.341-3.459Z"/><path d="M35.664,39.922,26.779,27.693a65.828,65.828,0,0,0-11.342,3.459v-9.9l11.387-9.625H13.807v20.25c-5.826,2.726-9.424,6.109-9.668,9.74l16.45,5.346C21.749,43.558,27.923,41.178,35.664,39.922Z"/><path d="M49.154,72.014a4.6,4.6,0,0,0-4.6,4.6v13.3q2.272.09,4.6.091t4.6-.091V76.611A4.6,4.6,0,0,0,49.154,72.014Z"/><path d="M29.124,69.748c2.021.367,4.119.679,6.254.932V67.943c-2.14-.26-4.236-.582-6.254-.963v2.768Z"/><path d="M62.931,81.558c2.136-.25,4.233-.564,6.255-.932V77.857c-2.016.382-4.112.7-6.255.963v2.738Z"/><path d="M29.124,80.626c2.021.367,4.119.682,6.254.932V78.82c-2.142-.26-4.239-.581-6.254-.963v2.769Z"/><path d="M12.628,75.621c1.126.54,2.339,1.058,3.615,1.541.124.048.247.093.373.138V74.367a40.5,40.5,0,0,1-3.988-1.813v3.067Z"/><path d="M49.155,60.232c-21.839,0-39.719-5.572-45.046-13.354V73.413c0,8.218,17.222,15.265,38.816,16.423V76.611a6.229,6.229,0,0,1,12.458,0V89.837C76.98,88.679,94.2,81.632,94.2,73.414V46.879C88.873,54.66,70.994,60.232,49.155,60.232ZM18.248,79.608l-1.086-.378c-.506-.179-1.008-.357-1.5-.544-1.5-.569-2.917-1.184-4.213-1.824L11,76.637V69.752l1.227.712a37.97,37.97,0,0,0,5.5,2.585l.524.2Zm0-10.878-1.086-.381c-.506-.177-1.008-.355-1.5-.541-1.5-.567-2.914-1.182-4.213-1.825L11,65.759V58.873l1.227.713a38.076,38.076,0,0,0,5.5,2.585l.524.2ZM37.01,83.38l-.9-.1c-2.726-.3-5.4-.693-7.949-1.177l-.664-.124V75.876l.977.195c2.49.5,5.119.9,7.818,1.215l.723.081V83.38Zm0-10.878-.9-.1c-2.726-.3-5.4-.693-7.949-1.177l-.664-.126V64.995l.977.195c2.492.5,5.122.907,7.818,1.215l.723.084V72.5Zm33.806,9.479-.663.124c-2.55.483-5.224.879-7.949,1.177l-.9.1V77.367l.724-.081c2.7-.31,5.328-.717,7.817-1.215l.976-.195v6.105Zm0-10.879-.663.126c-2.55.483-5.224.879-7.949,1.177l-.9.1V66.489l.724-.084c2.7-.308,5.325-.715,7.817-1.215L70.817,65V71.1Zm16.5,5.536-.454.225c-1.3.641-2.715,1.255-4.213,1.824-.491.187-.992.365-1.5.544l-1.085.378V73.25l.524-.2a37.971,37.971,0,0,0,5.5-2.585l1.226-.712Zm0-10.878-.454.224c-1.3.644-2.717,1.258-4.213,1.825-.491.186-.992.364-1.5.541l-1.085.381V62.373l.524-.2a38.076,38.076,0,0,0,5.5-2.585l1.226-.713Z"/><path d="M62.931,70.68c2.136-.253,4.233-.564,6.255-.932V66.979c-2.018.381-4.114.7-6.255.963V70.68Z"/><path d="M12.628,64.742c1.127.539,2.341,1.058,3.615,1.542.124.045.247.093.373.138V63.489a40.973,40.973,0,0,1-3.988-1.815v3.068Z"/><path d="M81.693,77.3c.125-.045.249-.09.373-.138,1.277-.483,2.489-1,3.615-1.541V72.555a40.847,40.847,0,0,1-3.988,1.813Z"/><path d="M81.693,66.422c.125-.045.249-.093.373-.138,1.274-.484,2.488-1,3.615-1.542V61.674a40.843,40.843,0,0,1-3.988,1.815Z"/></g></svg>