<svg xmlns="http://www.w3.org/2000/svg" width="95" height="95" viewBox="0 0 95 95"><g transform="translate(-2.5 -2.5)"><g transform="translate(0 -952.362)"><path d="M50,954.862a47.5,47.5,0,1,0,47.5,47.5,47.515,47.515,0,0,0-47.5-47.5Zm0,2a45.5,45.5,0,1,1-45.5,45.5,45.485,45.485,0,0,1,45.5-45.5Z"/><path d="M42.75,986.862v31h14.5v-31Zm2,2h10.5v27H44.75Z"/><path d="M50,972.364a30,30,0,1,0,30,30,30.014,30.014,0,0,0-30-30Zm0,2a28,28,0,1,1-28,28,27.984,27.984,0,0,1,28-28Z"/><path d="M38.5,991.862v1h23v-1Z" fill-rule="evenodd"/><path d="M46,986.9v5.967h1V986.9Z" fill-rule="evenodd"/><path d="M53,987.073v5.789h1v-5.789Z" fill-rule="evenodd"/><path d="M38.5,1011.9v1h23v-1Z" fill-rule="evenodd"/><path d="M46,1011.9v5.967h1V1011.9Z" fill-rule="evenodd"/><path d="M53,1011.9v5.791h1V1011.9Z" fill-rule="evenodd"/></g></g></svg>